<?xml version="1.0" standalone="no"?>
<!DOCTYPE svg PUBLIC "-//W3C//DTD SVG 20010904//EN"
 "http://www.w3.org/TR/2001/REC-SVG-20010904/DTD/svg10.dtd">
<svg version="1.0" xmlns="http://www.w3.org/2000/svg"
 width="640.000000pt" height="640.000000pt" viewBox="0 0 640.000000 640.000000"
 preserveAspectRatio="xMidYMid meet">
<metadata>
Created by potrace 1.14, written by Peter Selinger 2001-2017
</metadata>
<g transform="translate(0.000000,640.000000) scale(0.100000,-0.100000)"
fill="#000000" stroke="none">
<path d="M4138 3660 c-2 -649 -3 -1242 -3 -1317 l0 -138 800 0 c882 0 889 0
1015 61 127 61 207 165 247 321 16 60 18 124 18 558 0 446 -2 496 -19 560 -41
156 -127 269 -249 325 -116 55 -169 60 -596 60 l-388 0 -37 -52 c-21 -29 -69
-98 -107 -153 -39 -55 -79 -111 -89 -125 -41 -51 -54 -50 438 -50 521 0 534
-2 601 -70 21 -21 43 -56 49 -78 17 -54 17 -749 0 -803 -16 -56 -69 -112 -130
-140 l-53 -24 -557 -3 -558 -3 -2 1108 c0 609 -1 1116 0 1126 2 16 -13 17
-188 17 l-190 0 -2 -1180z"/>
<path d="M620 4080 c-218 -37 -344 -147 -406 -355 -16 -53 -18 -117 -21 -569
-3 -306 0 -535 6 -573 20 -131 85 -231 190 -293 99 -59 203 -82 381 -84 l144
-1 41 60 c50 73 195 303 195 308 0 2 -84 7 -187 10 -268 8 -355 39 -383 138
-14 48 -13 764 1 830 23 106 108 159 259 159 l78 0 41 68 c23 37 75 119 116
182 41 63 75 118 75 123 0 9 -471 7 -530 -3z"/>
<path d="M1449 3928 c-56 -90 -109 -170 -116 -179 -30 -36 -19 -39 178 -39
218 0 267 -9 314 -56 64 -64 66 -82 63 -558 l-3 -428 -32 -28 c-40 -36 -82
-48 -207 -57 l-99 -8 -113 -178 c-63 -97 -114 -182 -114 -187 0 -13 390 -13
500 0 130 16 202 41 285 99 67 46 102 89 134 164 l26 62 5 495 c5 510 1 624
-23 708 -72 242 -253 352 -577 352 l-118 0 -103 -162z"/>
<path d="M3025 4074 c-158 -33 -284 -121 -338 -236 -64 -135 -61 -90 -65
-1029 -3 -812 -2 -856 15 -871 22 -19 352 -248 359 -248 2 0 4 407 4 905 0
621 3 920 11 955 14 65 75 133 134 149 24 6 139 11 285 11 135 0 250 4 256 8
18 11 264 354 264 368 0 2 -192 4 -427 3 -335 0 -443 -4 -498 -15z"/>
</g>
</svg>
